<svg width="102" height="110" viewBox="0 0 102 110" fill="none" xmlns="http://www.w3.org/2000/svg">
<path fill-rule="evenodd" clip-rule="evenodd" d="M64.4717 10.8189L60.7662 8.67949C54.5782 5.10684 46.9542 5.10684 40.7662 8.67949L16 22.9783C9.81198 26.5509 6 33.1534 6 40.2988V68.8963C6 76.0416 9.81197 82.6441 16 86.2168L40.7662 100.516C46.9542 104.088 54.5782 104.088 60.7662 100.516L85.5324 86.2168C91.7204 82.6441 95.5324 76.0416 95.5324 68.8963V40.2988C95.5324 34.2947 92.8409 28.674 88.3098 24.912C89.5392 23.2748 90.4163 21.3578 90.8284 19.2738C97.5092 24.1325 101.532 31.9292 101.532 40.2988V68.8963C101.532 78.1852 96.5768 86.7685 88.5324 91.4129L63.7662 105.712C55.7217 110.356 45.8106 110.356 37.7662 105.712L13 91.4129C4.95557 86.7685 0 78.1852 0 68.8963V40.2988C0 31.0099 4.95557 22.4266 13 17.7821L37.7662 3.48334C45.8106 -1.16111 55.7218 -1.16111 63.7662 3.48334L68.0989 5.98486C66.5627 7.30357 65.3172 8.95134 64.4717 10.8189ZM26.2372 54.8054C26.2372 41.3733 37.1261 30.4845 50.5582 30.4845C63.9903 30.4845 74.8791 41.3733 74.8791 54.8054C74.8791 68.2375 63.9903 79.1264 50.5582 79.1264C37.1261 79.1264 26.2372 68.2375 26.2372 54.8054ZM77.3542 6.83133C72.188 6.83133 68 11.0194 68 16.1855C68 21.3517 72.188 25.5398 77.3542 25.5398C82.5204 25.5398 86.7084 21.3517 86.7084 16.1855C86.7084 11.0194 82.5204 6.83133 77.3542 6.83133Z" fill="#144150"/>
</svg>
