<svg width="330" height="316" viewBox="0 0 330 316" fill="none" xmlns="http://www.w3.org/2000/svg">
<path d="M292.477 277.113C289.342 280.479 283.14 282.031 272.892 280.181C262.856 278.369 250.092 273.472 235.396 265.739C206.059 250.301 169.853 224 133.832 190.453C97.8108 156.906 69.0041 122.661 51.5203 94.4946C42.7627 80.3861 36.9713 68.0014 34.4511 58.12C31.8775 48.029 32.9843 41.7328 36.1193 38.3666C39.2542 35.0004 45.4559 33.449 55.7043 35.2991C65.7397 37.1108 78.5046 42.0077 93.1997 49.7407C122.537 65.1791 158.743 91.4799 194.764 125.027C230.785 158.573 259.592 192.819 277.076 220.985C285.833 235.094 291.625 247.478 294.145 257.36C296.719 267.451 295.612 273.747 292.477 277.113Z" stroke="#63828B" stroke-width="8"/>
<path d="M302.524 95.4886C304.577 98.5363 304.765 103.811 301.231 112.013C297.782 120.017 291.218 129.735 281.872 140.55C263.22 162.135 234.102 187.385 198.923 211.078C163.743 234.772 129.4 252.262 102.386 261.433C88.8513 266.028 77.3783 268.457 68.6658 268.644C59.737 268.836 54.9192 266.679 52.8666 263.631C50.814 260.584 50.6263 255.309 54.1604 247.107C57.6089 239.103 64.1728 229.385 73.5187 218.57C92.1714 196.985 121.288 171.735 156.468 148.042C191.648 124.348 225.991 106.858 253.005 97.6875C266.54 93.0925 278.013 90.663 286.725 90.4758C295.654 90.284 300.472 92.4409 302.524 95.4886Z" stroke="#63828B" stroke-width="8"/>
<circle cx="135.087" cy="75.4181" r="13" fill="#FC66FF" stroke="white" stroke-width="8"/>
<path d="M201.587 86.2123C187.045 77.8166 169.129 77.8166 154.587 86.2124L109.119 112.464C94.5767 120.859 85.6185 136.375 85.6185 153.167V205.669C85.6185 222.461 94.5767 237.977 109.119 246.373L154.587 272.624C169.129 281.02 187.045 281.02 201.587 272.624L247.056 246.373C261.598 237.977 270.556 222.461 270.556 205.669V153.167C270.556 136.375 261.598 120.859 247.056 112.464L201.587 86.2123Z" fill="url(#paint0_linear)" stroke="white" stroke-width="10"/>
<circle cx="209.587" cy="202.5" r="17.5" fill="white"/>
<circle cx="209.587" cy="202.5" r="17.5" stroke="#4ADEFF"/>
<path fill-rule="evenodd" clip-rule="evenodd" d="M234.379 100.5L243.157 105.568C246.993 104.057 250.709 102.691 254.291 101.475C267.643 96.9422 278.678 94.6496 286.811 94.4749C295.377 94.2909 298.341 96.4374 299.207 97.723C300.072 99.0086 300.948 102.562 297.557 110.43C294.338 117.902 288.065 127.266 278.846 137.935C266.437 152.294 249.251 168.378 228.617 184.567C230.371 186.59 231.823 188.881 232.905 191.37C285.301 150.396 316.743 109.44 305.842 93.2541C298.063 81.7038 270.49 85.3931 234.379 100.5ZM190.575 221.355C188.605 219.529 186.914 217.408 185.571 215.061C154.563 234.901 124.864 249.577 101.1 257.645C87.7483 262.178 76.7133 264.47 68.5799 264.645C60.0137 264.829 57.0501 262.682 56.1843 261.397C55.3185 260.111 54.4433 256.558 57.8339 248.689C61.0532 241.218 67.3256 231.854 76.5452 221.185C78.0577 219.435 79.6412 217.659 81.2933 215.861C81.16 214.503 81.0923 213.132 81.0923 211.751V204.437C54.8801 231.347 41.9636 254.603 49.5489 265.866C61.8589 284.144 123.737 264.259 190.575 221.355Z" fill="#63828B"/>
<defs>
<linearGradient id="paint0_linear" x1="178.087" y1="78.4181" x2="178.087" y2="280.418" gradientUnits="userSpaceOnUse">
<stop stop-color="#4AFFC9"/>
<stop offset="1" stop-color="#4ADEFF"/>
</linearGradient>
</defs>
</svg>
