<svg width="235" height="262" viewBox="0 0 235 262" fill="none" xmlns="http://www.w3.org/2000/svg">
<path fill-rule="evenodd" clip-rule="evenodd" d="M36.5108 83.7018L36.4603 83.6735C34.3998 87.2943 33.2816 91.4497 33.32 95.758L33.531 119.456L33.5789 124.836L33.6836 136.591C32.6586 145.405 29.9085 154.168 25.2965 162.392C19.2751 173.13 10.8159 181.639 1.00218 187.612C0.988218 187.312 0.979851 187.011 0.977157 186.709L0.85743 173.262L0.000955334 77.0742C-0.0203607 74.6803 0.315403 72.3335 0.97152 70.0995C1.01285 69.9588 1.05545 69.8185 1.09932 69.6787C1.61227 68.0436 2.29782 66.4719 3.14128 64.9898L3.19175 65.0181C4.00979 63.5376 4.98403 62.1437 6.10014 60.8619C6.21336 60.7319 6.32803 60.6031 6.44415 60.4754C8.02157 58.7409 9.86563 57.2243 11.9388 55.9924L93.9383 7.26906L105.4 0.458335C105.667 0.299984 105.936 0.147202 106.207 0C106.269 11.4153 103.469 22.9858 97.4982 33.6335C92.9249 41.7893 86.9195 48.6403 79.9675 54.052L69.9254 60.0189L65.3288 62.7502L45.2579 74.6761C41.5276 76.8926 38.5391 80.0311 36.5108 83.7018ZM114.806 222.892V222.95C118.972 222.977 123.143 221.919 126.882 219.779L147.449 208.004L152.118 205.331L162.32 199.49C170.509 196.073 179.497 194.186 188.927 194.186C201.238 194.186 212.797 197.403 222.807 203.041C222.552 203.2 222.293 203.355 222.031 203.505L210.361 210.186L126.882 257.979C124.804 259.168 122.593 260.023 120.324 260.544C120.252 260.56 120.18 260.576 120.108 260.592C120.08 260.598 120.051 260.605 120.022 260.611C119.979 260.62 119.937 260.629 119.894 260.638C118.217 260.99 116.511 261.161 114.806 261.15V261.092C112.943 261.104 111.079 260.899 109.253 260.477C106.968 259.95 104.744 259.083 102.655 257.877L20.0512 210.186L8.50448 203.52C8.23601 203.365 7.97127 203.205 7.71034 203.04C17.6365 197.403 29.0982 194.186 41.3058 194.186C52.4092 194.186 62.8956 196.847 72.1707 201.571L78.378 205.154C79.7659 206.056 81.1195 207.007 82.4362 208.004L102.655 219.677C106.413 221.847 110.612 222.919 114.806 222.892ZM227.692 60.0565C228.841 61.3274 229.848 62.715 230.699 64.1933L230.649 64.2224C231.598 65.8256 232.36 67.539 232.916 69.3286C233.612 71.5675 233.984 73.9258 233.996 76.3374L234.435 171.719L234.497 185.052C234.498 185.362 234.494 185.671 234.483 185.979C224.611 180.247 216.056 171.969 209.904 161.425C205.191 153.349 202.329 144.7 201.188 135.964L201.134 124.283L201.109 118.936L201.002 95.5897C200.982 91.2506 199.791 87.0837 197.655 83.4748L197.705 83.4456C195.628 79.8341 192.613 76.7641 188.879 74.6135L168.344 62.7842L163.681 60.0983L153.495 54.2307C146.417 48.8798 140.257 42.0677 135.505 33.9234C129.3 23.2902 126.253 11.6854 126.078 0.197958C126.344 0.338138 126.608 0.483642 126.87 0.634472L138.522 7.34671L221.873 55.3612C223.947 56.5562 225.8 58.0351 227.394 59.733C227.494 59.84 227.593 59.9478 227.692 60.0565ZM114.317 171.911C136.961 171.911 155.317 153.555 155.317 130.911C155.317 108.268 136.961 89.9114 114.317 89.9114C91.6737 89.9114 73.3173 108.268 73.3173 130.911C73.3173 153.555 91.6737 171.911 114.317 171.911Z" fill="url(#paint0_linear)"/>
<defs>
<linearGradient id="paint0_linear" x1="117" y1="261" x2="117" y2="3.07583e-06" gradientUnits="userSpaceOnUse">
<stop stop-color="#009DCF"/>
<stop offset="1" stop-color="#0ECAB7"/>
</linearGradient>
</defs>
</svg>
