<svg width="831" height="316" viewBox="0 0 831 316" fill="none" xmlns="http://www.w3.org/2000/svg">
<path d="M292.477 277.113C289.342 280.479 283.14 282.031 272.892 280.181C262.856 278.369 250.092 273.472 235.396 265.739C206.059 250.301 169.853 224 133.832 190.453C97.8108 156.906 69.0041 122.661 51.5203 94.4946C42.7627 80.3861 36.9713 68.0014 34.4511 58.12C31.8775 48.029 32.9843 41.7328 36.1193 38.3666C39.2542 35.0004 45.4559 33.449 55.7043 35.2991C65.7397 37.1108 78.5046 42.0077 93.1997 49.7407C122.537 65.1791 158.743 91.4799 194.764 125.027C230.785 158.573 259.592 192.819 277.076 220.985C285.833 235.094 291.625 247.478 294.145 257.36C296.719 267.451 295.612 273.747 292.477 277.113Z" stroke="#63828B" stroke-width="8"/>
<path d="M302.524 95.4886C304.577 98.5363 304.765 103.811 301.231 112.013C297.782 120.017 291.218 129.735 281.872 140.55C263.22 162.135 234.102 187.385 198.923 211.078C163.743 234.772 129.4 252.262 102.386 261.433C88.8513 266.028 77.3783 268.457 68.6658 268.644C59.737 268.836 54.9192 266.679 52.8666 263.631C50.814 260.584 50.6263 255.309 54.1604 247.107C57.6089 239.103 64.1728 229.385 73.5187 218.57C92.1714 196.985 121.288 171.735 156.468 148.042C191.648 124.348 225.991 106.858 253.005 97.6875C266.54 93.0925 278.013 90.663 286.725 90.4758C295.654 90.284 300.472 92.4409 302.524 95.4886Z" stroke="#63828B" stroke-width="8"/>
<circle cx="135.087" cy="75.4181" r="13" fill="#FC66FF" stroke="white" stroke-width="8"/>
<path d="M201.587 86.2123C187.045 77.8166 169.129 77.8166 154.587 86.2124L109.119 112.464C94.5767 120.859 85.6185 136.375 85.6185 153.167V205.669C85.6185 222.461 94.5767 237.977 109.119 246.373L154.587 272.624C169.129 281.02 187.045 281.02 201.587 272.624L247.056 246.373C261.598 237.977 270.556 222.461 270.556 205.669V153.167C270.556 136.375 261.598 120.859 247.056 112.464L201.587 86.2123Z" fill="url(#paint0_linear)" stroke="white" stroke-width="10"/>
<path d="M466.648 109.912V129.64H439.864V211H415.24V129.64H388.456V109.912H466.648ZM474.11 170.68C474.11 162.424 475.646 155.176 478.718 148.936C481.886 142.696 486.158 137.896 491.534 134.536C496.91 131.176 502.91 129.496 509.534 129.496C515.198 129.496 520.142 130.648 524.366 132.952C528.686 135.256 531.998 138.28 534.302 142.024V130.648H558.926V211H534.302V199.624C531.902 203.368 528.542 206.392 524.222 208.696C519.998 211 515.054 212.152 509.39 212.152C502.862 212.152 496.91 210.472 491.534 207.112C486.158 203.656 481.886 198.808 478.718 192.568C475.646 186.232 474.11 178.936 474.11 170.68ZM534.302 170.824C534.302 164.68 532.574 159.832 529.118 156.28C525.758 152.728 521.63 150.952 516.734 150.952C511.838 150.952 507.662 152.728 504.206 156.28C500.846 159.736 499.166 164.536 499.166 170.68C499.166 176.824 500.846 181.72 504.206 185.368C507.662 188.92 511.838 190.696 516.734 190.696C521.63 190.696 525.758 188.92 529.118 185.368C532.574 181.816 534.302 176.968 534.302 170.824ZM589.125 122.296C584.805 122.296 581.253 121.048 578.469 118.552C575.781 115.96 574.437 112.792 574.437 109.048C574.437 105.208 575.781 102.04 578.469 99.544C581.253 96.952 584.805 95.656 589.125 95.656C593.349 95.656 596.805 96.952 599.493 99.544C602.277 102.04 603.669 105.208 603.669 109.048C603.669 112.792 602.277 115.96 599.493 118.552C596.805 121.048 593.349 122.296 589.125 122.296ZM601.365 130.648V211H576.741V130.648H601.365ZM643.833 104.44V211H619.209V104.44H643.833ZM741.022 130.648V211H716.398V200.056C713.902 203.608 710.494 206.488 706.174 208.696C701.95 210.808 697.246 211.864 692.062 211.864C685.918 211.864 680.494 210.52 675.79 207.832C671.086 205.048 667.438 201.064 664.846 195.88C662.254 190.696 660.958 184.6 660.958 177.592V130.648H685.438V174.28C685.438 179.656 686.83 183.832 689.614 186.808C692.398 189.784 696.142 191.272 700.846 191.272C705.646 191.272 709.438 189.784 712.222 186.808C715.006 183.832 716.398 179.656 716.398 174.28V130.648H741.022ZM791.397 212.152C784.389 212.152 778.149 210.952 772.677 208.552C767.205 206.152 762.885 202.888 759.717 198.76C756.549 194.536 754.773 189.832 754.389 184.648H778.725C779.013 187.432 780.309 189.688 782.613 191.416C784.917 193.144 787.749 194.008 791.109 194.008C794.181 194.008 796.533 193.432 798.165 192.28C799.893 191.032 800.757 189.448 800.757 187.528C800.757 185.224 799.557 183.544 797.157 182.488C794.757 181.336 790.869 180.088 785.493 178.744C779.733 177.4 774.933 176.008 771.093 174.568C767.253 173.032 763.941 170.68 761.157 167.512C758.373 164.248 756.981 159.88 756.981 154.408C756.981 149.8 758.229 145.624 760.725 141.88C763.317 138.04 767.061 135.016 771.957 132.808C776.949 130.6 782.853 129.496 789.669 129.496C799.749 129.496 807.669 131.992 813.429 136.984C819.285 141.976 822.645 148.6 823.509 156.856H800.757C800.373 154.072 799.125 151.864 797.013 150.232C794.997 148.6 792.309 147.784 788.949 147.784C786.069 147.784 783.861 148.36 782.325 149.512C780.789 150.568 780.021 152.056 780.021 153.976C780.021 156.28 781.221 158.008 783.621 159.16C786.117 160.312 789.957 161.464 795.141 162.616C801.093 164.152 805.941 165.688 809.685 167.224C813.429 168.664 816.693 171.064 819.477 174.424C822.357 177.688 823.845 182.104 823.941 187.672C823.941 192.376 822.597 196.6 819.909 200.344C817.317 203.992 813.525 206.872 808.533 208.984C803.637 211.096 797.925 212.152 791.397 212.152Z" fill="#63828B"/>
<path fill-rule="evenodd" clip-rule="evenodd" d="M234.379 100.5L243.157 105.568C246.993 104.057 250.709 102.691 254.291 101.475C267.643 96.9422 278.678 94.6496 286.811 94.4749C295.377 94.2909 298.341 96.4374 299.207 97.723C300.072 99.0086 300.948 102.562 297.557 110.43C294.338 117.902 288.065 127.266 278.846 137.935C266.437 152.294 249.251 168.378 228.617 184.567C230.371 186.59 231.823 188.881 232.905 191.37C285.301 150.396 316.743 109.44 305.842 93.2541C298.063 81.7038 270.49 85.3931 234.379 100.5ZM190.575 221.355C188.605 219.529 186.914 217.408 185.571 215.061C154.563 234.901 124.864 249.577 101.1 257.645C87.7483 262.178 76.7133 264.47 68.5799 264.645C60.0137 264.829 57.0501 262.682 56.1843 261.397C55.3185 260.111 54.4433 256.558 57.8339 248.689C61.0532 241.218 67.3256 231.854 76.5452 221.185C78.0577 219.435 79.6412 217.659 81.2933 215.861C81.16 214.503 81.0923 213.132 81.0923 211.751V204.437C54.8801 231.347 41.9636 254.603 49.5489 265.866C61.8589 284.144 123.737 264.259 190.575 221.355Z" fill="#63828B"/>
<circle cx="209.587" cy="202.5" r="17.5" fill="white"/>
<circle cx="209.587" cy="202.5" r="17.5" stroke="#4ADEFF"/>
<path d="M417.889 234.908V250.784C417.889 253.016 418.429 254.672 419.509 255.752C420.613 256.832 422.137 257.372 424.081 257.372C426.001 257.372 427.501 256.832 428.581 255.752C429.685 254.672 430.237 253.016 430.237 250.784V234.908H433.513V250.748C433.513 252.836 433.093 254.6 432.253 256.04C431.413 257.456 430.273 258.512 428.833 259.208C427.417 259.904 425.821 260.252 424.045 260.252C422.269 260.252 420.661 259.904 419.221 259.208C417.805 258.512 416.677 257.456 415.837 256.04C415.021 254.6 414.613 252.836 414.613 250.748V234.908H417.889ZM455.214 234.908V260H451.938V234.908H455.214ZM499.591 234.908V260H496.315V234.908H499.591ZM537.862 260H534.586L521.41 240.02V260H518.134V234.872H521.41L534.586 254.816V234.872H537.862V260ZM591.528 247.076C592.44 247.22 593.268 247.592 594.012 248.192C594.78 248.792 595.38 249.536 595.812 250.424C596.268 251.312 596.496 252.26 596.496 253.268C596.496 254.54 596.172 255.692 595.524 256.724C594.876 257.732 593.928 258.536 592.68 259.136C591.456 259.712 590.004 260 588.324 260H578.964V234.908H587.964C589.668 234.908 591.12 235.196 592.32 235.772C593.52 236.324 594.42 237.08 595.02 238.04C595.62 239 595.92 240.08 595.92 241.28C595.92 242.768 595.512 244.004 594.696 244.988C593.904 245.948 592.848 246.644 591.528 247.076ZM582.24 245.744H587.748C589.284 245.744 590.472 245.384 591.312 244.664C592.152 243.944 592.572 242.948 592.572 241.676C592.572 240.404 592.152 239.408 591.312 238.688C590.472 237.968 589.26 237.608 587.676 237.608H582.24V245.744ZM588.036 257.3C589.668 257.3 590.94 256.916 591.852 256.148C592.764 255.38 593.22 254.312 593.22 252.944C593.22 251.552 592.74 250.46 591.78 249.668C590.82 248.852 589.536 248.444 587.928 248.444H582.24V257.3H588.036ZM617.279 237.572V245.96H626.423V248.66H617.279V257.3H627.503V260H614.003V234.872H627.503V237.572H617.279ZM660.864 234.908V237.572H654.024V260H650.748V237.572H643.872V234.908H660.864ZM693.3 234.908V237.572H686.46V260H683.184V237.572H676.308V234.908H693.3ZM713.569 237.572V245.96H722.713V248.66H713.569V257.3H723.793V260H710.293V234.872H723.793V237.572H713.569ZM754.922 260L748.946 249.74H744.986V260H741.71V234.908H749.81C751.706 234.908 753.302 235.232 754.598 235.88C755.918 236.528 756.902 237.404 757.55 238.508C758.198 239.612 758.522 240.872 758.522 242.288C758.522 244.016 758.018 245.54 757.01 246.86C756.026 248.18 754.538 249.056 752.546 249.488L758.846 260H754.922ZM744.986 247.112H749.81C751.586 247.112 752.918 246.68 753.806 245.816C754.694 244.928 755.138 243.752 755.138 242.288C755.138 240.8 754.694 239.648 753.806 238.832C752.942 238.016 751.61 237.608 749.81 237.608H744.986V247.112Z" fill="#AEC3CA"/>
<defs>
<linearGradient id="paint0_linear" x1="178.087" y1="78.4181" x2="178.087" y2="280.418" gradientUnits="userSpaceOnUse">
<stop stop-color="#4AFFC9"/>
<stop offset="1" stop-color="#4ADEFF"/>
</linearGradient>
</defs>
</svg>
