<svg enable-background="new 0 0 36 36" height="512" viewBox="0 0 36 36" width="512" xmlns="http://www.w3.org/2000/svg"><path d="m8.114 5.564c-1.805 6.677-6.504 10.327-7.374 13.545s-.847 10.475 13.955 14.477 19.432-4.501 20.388-8.041c4.481-16.572-23.772-31.807-26.969-19.981z" fill="#efefef"/><path d="m8 6.75h11.25c1.105 0 2 .895 2 2v1.5 12.5 1.5c0 1.105-.895 2-2 2h-4-7.25z" fill="#f3f3f1"/><path d="m15.25 10v18c0 .69-.56 1.25-1.25 1.25-.14 0-.27-.02-.4-.06l-6-2c-.49-.17-.85-.64-.85-1.19v-18c0-.69.56-1.25 1.25-1.25.14 0 .27.02.4.06l6 2c.49.17.85.64.85 1.19z" fill="#2fdf84"/><path d="m9.85 27.19c-.49-.17-.85-.64-.85-1.19v-18c0-.339.138-.646.358-.871l-.958-.319c-.13-.04-.26-.06-.4-.06-.69 0-1.25.56-1.25 1.25v18c0 .55.36 1.02.85 1.19l6 2c.13.04.26.06.4.06.351 0 .665-.146.892-.379z" fill="#00b871"/><g fill="#a4afc1"><path d="m6 32.25c-.827 0-1.5-.673-1.5-1.5s.673-1.5 1.5-1.5 1.5.673 1.5 1.5-.673 1.5-1.5 1.5zm0-2c-.276 0-.5.225-.5.5s.224.5.5.5.5-.225.5-.5-.224-.5-.5-.5z"/><path d="m26.618 3.717h1v2h-1z" transform="matrix(.707 -.707 .707 .707 4.607 20.557)"/><path d="m30.684 7.783h1v2h-1z" transform="matrix(.707 -.707 .707 .707 2.923 24.623)"/><path d="m25.942 8.283h2v1h-2z" transform="matrix(.707 -.707 .707 .707 1.68 21.623)"/><path d="m30.007 4.217h2v1h-2z" transform="matrix(.707 -.707 .707 .707 5.747 23.307)"/></g><path d="m19.75 15.75h9.5v1.5h-9.5z"/><path d="m26.03 20.78-1.06-1.06 3.22-3.22-3.22-3.22 1.061-1.061 3.75 3.75c.293.293.293.768 0 1.061z"/><path d="m14 30c-.215 0-.418-.03-.621-.093l-6.016-2.005c-.819-.286-1.363-1.048-1.363-1.902v-18c0-1.103.897-2 2-2 .215 0 .418.03.621.093l6.016 2.005c.819.286 1.363 1.048 1.363 1.902v18c0 1.103-.897 2-2 2zm-6-22.5c-.276 0-.5.225-.5.5v18c0 .213.143.411.347.482l5.99 1.996c.043.014.098.022.163.022.276 0 .5-.225.5-.5v-18c0-.213-.143-.411-.347-.482l-5.99-1.996c-.043-.014-.098-.022-.163-.022z"/><path d="m22 13.25h-1.5v-4.5c0-.689-.561-1.25-1.25-1.25h-11.25v-1.5h11.25c1.517 0 2.75 1.233 2.75 2.75z"/><path d="m19.25 27h-4v-1.5h4c.689 0 1.25-.561 1.25-1.25v-4.5h1.5v4.5c0 1.517-1.233 2.75-2.75 2.75z"/></svg>