<svg height="512" viewBox="0 0 192 192" width="512" xmlns="http://www.w3.org/2000/svg" xmlns:xlink="http://www.w3.org/1999/xlink"><linearGradient id="New_Gradient_Swatch_1" gradientUnits="userSpaceOnUse" x1="67.729" x2="124.271" y1="124.271" y2="67.729"><stop offset="0" stop-color="#ff85a6"/><stop offset="1" stop-color="#ffdc68"/></linearGradient><path d="m96 192a96 96 0 1 1 96-96 96.108 96.108 0 0 1 -96 96zm0-176a80 80 0 1 0 80 80 80.091 80.091 0 0 0 -80-80z" fill="#ffd342"/><circle cx="96" cy="96" fill="url(#New_Gradient_Swatch_1)" r="40"/><circle cx="112" cy="80" fill="#fff" r="8"/><circle cx="160" cy="32" fill="#ffedb4" r="24"/><path d="m168 48a23.989 23.989 0 0 1 -20.487-36.487 23.994 23.994 0 1 0 32.974 32.974 23.853 23.853 0 0 1 -12.487 3.513z" fill="#ffe58e"/><circle cx="32" cy="160" fill="#ffedb4" r="24"/><path d="m40 176a23.989 23.989 0 0 1 -20.487-36.487 23.994 23.994 0 1 0 32.974 32.974 23.853 23.853 0 0 1 -12.487 3.513z" fill="#ffe58e"/><circle cx="160" cy="152" fill="#ffedb4" r="24"/><path d="m168 168a23.989 23.989 0 0 1 -20.487-36.487 23.994 23.994 0 1 0 32.974 32.974 23.853 23.853 0 0 1 -12.487 3.513z" fill="#ffe58e"/></svg>