<svg id="Capa_1" enable-background="new 0 0 512 512" height="512" viewBox="0 0 512 512" width="512" xmlns="http://www.w3.org/2000/svg" xmlns:xlink="http://www.w3.org/1999/xlink"><linearGradient id="SVGID_1_" gradientUnits="userSpaceOnUse" x1="256" x2="256" y1="512" y2="45"><stop offset="0" stop-color="#5558ff"/><stop offset="1" stop-color="#00c0ff"/></linearGradient><linearGradient id="SVGID_2_" gradientUnits="userSpaceOnUse" x1="256" x2="256" y1="512" y2="0"><stop offset="0" stop-color="#addcff"/><stop offset=".5028" stop-color="#eaf6ff"/><stop offset="1" stop-color="#eaf6ff"/></linearGradient><g><g><g><path d="m165 45h-120v60h120zm182 0v60h120v-60zm98.32 229.52-181-120c-5.038-3.359-11.602-3.359-16.641 0l-181 120c-5.508 3.662-7.939 10.503-6.035 16.831s7.735 10.649 14.356 10.649h15v135c0 8.057 6.335 15.337 14.385 15.013 8.539-.345 15.615 6.506 15.615 14.987 0 8.276-6.738 15-15 15-8.291 0-15 6.709-15 15s6.709 15 15 15h76c16.569 0 30-13.432 30-30v-90h90v90c0 16.568 13.431 30 30 30h76c8.291 0 15-6.709 15-15s-6.709-15-15-15c-8.262 0-15-6.724-15-15 0-8.481 7.076-15.332 15.615-14.987 8.051.324 14.385-6.956 14.385-15.013v-135h15c6.621 0 12.451-4.321 14.355-10.649s-.527-13.169-6.035-16.831z" fill="url(#SVGID_1_)"/></g></g><g><g><path d="m497 0h-180c-8.401 0-15 6.599-15 15v120c0 8.399 6.599 15 15 15h30v15c0 5.4 2.999 10.499 7.8 13.2 5.449 2.722 10.514 2.223 15.601-.601l41.1-27.6h85.499c8.401 0 15-6.601 15-15v-119.999c0-8.401-6.599-15-15-15zm-120 90c-8.401 0-15-6.601-15-15 0-8.401 6.599-15 15-15s15 6.599 15 15c0 8.399-6.599 15-15 15zm60 0c-8.401 0-15-6.601-15-15 0-8.401 6.599-15 15-15s15 6.599 15 15c0 8.399-6.599 15-15 15zm-227 45v-120c0-8.401-6.599-15-15-15h-180c-8.401 0-15 6.599-15 15v120c0 8.399 6.599 15 15 15h85.499l41.1 27.6c5.075 2.818 10.142 3.328 15.601.601 4.801-2.701 7.8-7.8 7.8-13.2v-15h30c8.401-.001 15-6.602 15-15.001zm-135-45c-8.401 0-15-6.601-15-15 0-8.401 6.599-15 15-15s15 6.599 15 15c0 8.399-6.599 15-15 15zm60 0c-8.401 0-15-6.601-15-15 0-8.401 6.599-15 15-15s15 6.599 15 15c0 8.399-6.599 15-15 15zm121 242c24.814 0 45-20.186 45-45s-20.186-45-45-45-45 20.186-45 45 20.186 45 45 45zm-137.934 91.934c-5.625-18.457-22.793-31.934-43.066-31.934s-37.441 13.477-43.066 31.934c-18.457 5.61-31.934 22.793-31.934 43.066 0 24.814 20.186 45 45 45h60c24.814 0 45-20.186 45-45 0-20.273-13.477-37.456-31.934-43.066zm362 0c-5.625-18.457-22.793-31.934-43.066-31.934s-37.441 13.477-43.066 31.934c-18.457 5.61-31.934 22.793-31.934 43.066 0 24.814 20.186 45 45 45h60c24.814 0 45-20.186 45-45 0-20.273-13.477-37.456-31.934-43.066zm-164.066-61.934h-120c-8.284 0-15 6.716-15 15v135h150v-135c0-8.284-6.716-15-15-15z" fill="url(#SVGID_2_)"/></g></g></g></svg>