<svg id="Capa_1" enable-background="new 0 0 512 512" height="512" viewBox="0 0 512 512" width="512" xmlns="http://www.w3.org/2000/svg"><g><g><path d="m256 151c-57.9 0-105 47.1-105 105s47.1 105 105 105 105-47.1 105-105-47.1-105-105-105z" fill="#edf5ff"/></g><path d="m361 256c0 57.9-47.1 105-105 105v-210c57.9 0 105 47.1 105 105z" fill="#d5e8fe"/><g><path d="m256 211c-24.81 0-45 20.19-45 45s20.19 45 45 45 45-20.19 45-45-20.19-45-45-45z" fill="#ff6c6c"/></g><path d="m301 256c0 24.81-20.19 45-45 45v-90c24.81 0 45 20.19 45 45z" fill="#e63950"/><g><path d="m61 166h30v180h-30z" fill="#4a696f"/></g><g><path d="m95.159 75.5h141.683v30h-141.683z" fill="#4a696f" transform="matrix(.892 -.453 .453 .892 -22.986 84.987)"/></g><g><path d="m331 19.659h30v141.683h-30z" fill="#384949" transform="matrix(.453 -.892 .892 .453 108.625 358.005)"/></g><g><path d="m421 166h30v180h-30z" fill="#384949"/></g><g><path d="m275.159 406.5h141.683v30h-141.683z" fill="#384949" transform="matrix(.892 -.453 .453 .892 -153.368 202.389)"/></g><g><path d="m151 350.659h30v141.683h-30z" fill="#4a696f" transform="matrix(.453 -.892 .892 .453 -284.977 378.627)"/></g><g><path d="m76 421c-24.813 0-45-20.187-45-45s20.187-45 45-45 45 20.187 45 45-20.187 45-45 45z" fill="#65d6a9"/></g><g><path d="m76 181c-24.813 0-45-20.187-45-45s20.187-45 45-45 45 20.187 45 45-20.187 45-45 45z" fill="#65d6a9"/></g><g><path d="m256 0c-24.81 0-45 20.19-45 45s20.19 45 45 45 45-20.19 45-45-20.19-45-45-45z" fill="#65d6a9"/></g><path d="m301 45c0 24.81-20.19 45-45 45v-90c24.81 0 45 20.19 45 45z" fill="#26bfa6"/><g><path d="m256 422c-24.81 0-45 20.19-45 45s20.19 45 45 45 45-20.19 45-45-20.19-45-45-45z" fill="#65d6a9"/></g><path d="m301 467c0 24.81-20.19 45-45 45v-90c24.81 0 45 20.19 45 45z" fill="#26bfa6"/><g><g><g><g><path d="m436 181c-24.813 0-45-20.187-45-45s20.187-45 45-45 45 20.187 45 45-20.187 45-45 45z" fill="#26bfa6"/></g></g></g></g><g><g><g><g><path d="m436 421c-24.813 0-45-20.187-45-45s20.187-45 45-45 45 20.187 45 45-20.187 45-45 45z" fill="#26bfa6"/></g></g></g></g></g></svg>