<svg height="464pt" viewBox="-16 0 464 464" width="464pt" xmlns="http://www.w3.org/2000/svg"><path d="m336 32v16h-256c-17.671875 0-32 14.328125-32 32v288h-16c-17.671875 0-32-14.328125-32-32v-304c0-17.671875 14.328125-32 32-32h272c17.671875 0 32 14.328125 32 32zm0 0" fill="#ffb655"/><path d="m96 128v32h336v-32c0-17.671875-14.328125-32-32-32h-272c-17.671875 0-32 14.328125-32 32zm0 0" fill="#ff7956"/><path d="m128 464h272c17.671875 0 32-14.328125 32-32v-272h-336v272c0 17.671875 14.328125 32 32 32zm0 0" fill="#ffe477"/><path d="m96 128c0-17.671875 14.328125-32 32-32h256v-16c0-17.671875-14.328125-32-32-32h-272c-17.671875 0-32 14.328125-32 32v304c0 17.671875 14.328125 32 32 32h16zm0 0" fill="#ffc477"/><path d="m128 136c-1.046875-.011719-2.078125-.230469-3.039062-.640625-.980469-.386719-1.875-.957031-2.640626-1.679687-.703124-.777344-1.273437-1.671876-1.679687-2.640626-.851563-1.9375-.851563-4.140624 0-6.078124.386719-.980469.957031-1.875 1.679687-2.640626 3.207032-2.960937 8.152344-2.960937 11.359376 0 .722656.765626 1.292968 1.660157 1.679687 2.640626.855469 1.9375.855469 4.140624 0 6.078124-.40625.96875-.976563 1.863282-1.679687 2.640626-1.507813 1.503906-3.550782 2.339843-5.679688 2.320312zm0 0" fill="#1db794"/><path d="m152 136c-1.046875-.011719-2.078125-.230469-3.039062-.640625-.96875-.40625-1.863282-.972656-2.640626-1.679687-.703124-.777344-1.273437-1.671876-1.679687-2.640626-.449219-.949218-.667969-1.988281-.640625-3.039062.011719-1.046875.230469-2.078125.640625-3.039062.386719-.980469.957031-1.875 1.679687-2.640626 3.207032-2.960937 8.152344-2.960937 11.359376 0 .722656.765626 1.292968 1.660157 1.679687 2.640626.855469 1.9375.855469 4.140624 0 6.078124-.40625.96875-.976563 1.863282-1.679687 2.640626-1.507813 1.503906-3.550782 2.339843-5.679688 2.320312zm0 0" fill="#ffde55"/><path d="m176 136c-2.128906.023438-4.175781-.8125-5.679688-2.320312-1.507812-1.503907-2.34375-3.550782-2.320312-5.679688-.027344-1.050781.191406-2.089844.640625-3.039062.386719-.980469.957031-1.875 1.679687-2.640626 3.207032-2.960937 8.152344-2.960937 11.359376 0 .722656.765626 1.292968 1.660157 1.679687 2.640626 1.054687 2.460937.796875 5.285156-.6875 7.511718-1.484375 2.226563-3.996094 3.554688-6.671875 3.527344zm0 0" fill="#ffb655"/></svg>